# xmcd
#
# Track frame offsets:
#	150
#	15510
#	29597
#	49000
#	76875
#
# Disc length: 1220 seconds
#
# Revision: 0
# Processed by: cddbd v1.4PL0 Copyright (c) Steve Scherf et al.
# Submitted via: audiograbber 1.81.01
#
DISCID=3004c205
DTITLE=Bellamy Brothers - Let Your Love Flow - The Remixes' 94
DYEAR=1994
DGENRE=Country
TTITLE0=Let Your Love Flow (Classic Remastered Radio Version)
TTITLE1=Let Your Love Flow ('94 Dance Remix)
TTITLE2=Let Your Love Flow (Classic Remastered Version)
TTITLE3=Let Your Love Flow ('94 Dance Remix - Long Version)
TTITLE4=Let Your Love Flow (Original Version)
EXTD=
EXTT0=
EXTT1=
EXTT2=
EXTT3=
EXTT4=
PLAYORDER=
